<svg xmlns="http://www.w3.org/2000/svg" xmlns:xlink="http://www.w3.org/1999/xlink" contentStyleType="text/css" data-diagram-type="ACTIVITY" height="1141px" preserveAspectRatio="none" style="width:583px;height:1141px;background:#FFFFFF;" version="1.1" viewBox="0 0 583 1141" width="583px" zoomAndPan="magnify"><title>Dagents OCaml Adoption - Materialization Phases</title><defs/><g><g class="title" data-source-line="1"><text fill="#000000" font-family="sans-serif" font-size="14" font-weight="bold" lengthAdjust="spacing" textLength="363.5693" x="108.301" y="33.5352">Dagents OCaml Adoption - Materialization Phases</text></g><ellipse cx="304.1196" cy="57.4883" fill="#222222" rx="10" ry="10" style="stroke:#222222;stroke-width:1;"/><rect fill="#F1F1F1" height="62.3984" rx="12.5" ry="12.5" style="stroke:#181818;stroke-width:0.5;" width="249.9453" x="179.147" y="87.4883"/><text fill="#000000" font-family="sans-serif" font-size="12" lengthAdjust="spacing" textLength="44.8945" x="189.147" y="109.0898">Phase 1</text><text fill="#000000" font-family="sans-serif" font-size="12" lengthAdjust="spacing" textLength="149.8008" x="189.147" y="123.2227">Create OCaml common IR</text><text fill="#000000" font-family="sans-serif" font-size="12" lengthAdjust="spacing" textLength="229.9453" x="189.147" y="137.3555">for dataset, model, and workload specs</text><rect fill="#F1F1F1" height="48.2656" rx="12.5" ry="12.5" style="stroke:#181818;stroke-width:0.5;" width="231.582" x="188.3286" y="169.8867"/><text fill="#000000" font-family="sans-serif" font-size="12" lengthAdjust="spacing" textLength="211.582" x="198.3286" y="191.4883">Add language-neutral contract tests</text><text fill="#000000" font-family="sans-serif" font-size="12" lengthAdjust="spacing" textLength="206.9355" x="198.3286" y="205.6211">for Python, Spring Boot, and OCaml</text><polygon fill="#F1F1F1" points="259.0535,238.1523,349.1858,238.1523,361.1858,250.1523,349.1858,262.1523,259.0535,262.1523,247.0535,250.1523,259.0535,238.1523" style="stroke:#181818;stroke-width:0.5;"/><text fill="#000000" font-family="sans-serif" font-size="11" lengthAdjust="spacing" textLength="90.1323" x="259.0535" y="254.3096">Shared IR stable?</text><text fill="#000000" font-family="sans-serif" font-size="11" lengthAdjust="spacing" textLength="17.4829" x="229.5706" y="247.832">yes</text><text fill="#000000" font-family="sans-serif" font-size="11" lengthAdjust="spacing" textLength="13.5835" x="361.1858" y="247.832">no</text><rect fill="#F1F1F1" height="48.2656" rx="12.5" ry="12.5" style="stroke:#181818;stroke-width:0.5;" width="194.1875" x="120.0225" y="272.1523"/><text fill="#000000" font-family="sans-serif" font-size="12" lengthAdjust="spacing" textLength="44.8945" x="130.0225" y="293.7539">Phase 2</text><text fill="#000000" font-family="sans-serif" font-size="12" lengthAdjust="spacing" textLength="174.1875" x="130.0225" y="307.8867">Implement manifest-compiler</text><rect fill="#F1F1F1" height="48.2656" rx="12.5" ry="12.5" style="stroke:#181818;stroke-width:0.5;" width="187.4727" x="123.3799" y="340.418"/><text fill="#000000" font-family="sans-serif" font-size="12" lengthAdjust="spacing" textLength="128.3496" x="133.3799" y="362.0195">Integrate core-service</text><text fill="#000000" font-family="sans-serif" font-size="12" lengthAdjust="spacing" textLength="167.4727" x="133.3799" y="376.1523">with manifest generation API</text><rect fill="#F1F1F1" height="34.1328" rx="12.5" ry="12.5" style="stroke:#181818;stroke-width:0.5;" width="113.8262" x="334.21" y="272.1523"/><text fill="#000000" font-family="sans-serif" font-size="12" lengthAdjust="spacing" textLength="93.8262" x="344.21" y="293.7539">Refine contracts</text><polygon fill="#F1F1F1" points="304.1196,394.6836,316.1196,406.6836,304.1196,418.6836,292.1196,406.6836,304.1196,394.6836" style="stroke:#181818;stroke-width:0.5;"/><polygon fill="#F1F1F1" points="228.5269,438.6836,379.7124,438.6836,391.7124,450.6836,379.7124,462.6836,228.5269,462.6836,216.5269,450.6836,228.5269,438.6836" style="stroke:#181818;stroke-width:0.5;"/><text fill="#000000" font-family="sans-serif" font-size="11" lengthAdjust="spacing" textLength="151.1855" x="228.5269" y="454.8408">Manifest compiler accepted?</text><text fill="#000000" font-family="sans-serif" font-size="11" lengthAdjust="spacing" textLength="17.4829" x="199.0439" y="448.3633">yes</text><text fill="#000000" font-family="sans-serif" font-size="11" lengthAdjust="spacing" textLength="13.5835" x="391.7124" y="448.3633">no</text><rect fill="#F1F1F1" height="48.2656" rx="12.5" ry="12.5" style="stroke:#181818;stroke-width:0.5;" width="190.0684" x="101.9404" y="472.6836"/><text fill="#000000" font-family="sans-serif" font-size="12" lengthAdjust="spacing" textLength="44.8945" x="111.9404" y="494.2852">Phase 3</text><text fill="#000000" font-family="sans-serif" font-size="12" lengthAdjust="spacing" textLength="170.0684" x="111.9404" y="508.418">Implement pipeline-compiler</text><rect fill="#F1F1F1" height="48.2656" rx="12.5" ry="12.5" style="stroke:#181818;stroke-width:0.5;" width="197.8027" x="98.0732" y="540.9492"/><text fill="#000000" font-family="sans-serif" font-size="12" lengthAdjust="spacing" textLength="149.5664" x="108.0732" y="562.5508">Integrate pipeline-service</text><text fill="#000000" font-family="sans-serif" font-size="12" lengthAdjust="spacing" textLength="177.8027" x="108.0732" y="576.6836">with compiled execution plans</text><rect fill="#F1F1F1" height="34.1328" rx="12.5" ry="12.5" style="stroke:#181818;stroke-width:0.5;" width="190.7773" x="315.876" y="472.6836"/><text fill="#000000" font-family="sans-serif" font-size="12" lengthAdjust="spacing" textLength="170.7773" x="325.876" y="494.2852">Expand workload spec model</text><polygon fill="#F1F1F1" points="304.1196,595.2148,316.1196,607.2148,304.1196,619.2148,292.1196,607.2148,304.1196,595.2148" style="stroke:#181818;stroke-width:0.5;"/><polygon fill="#F1F1F1" points="238.1438,639.2148,370.0955,639.2148,382.0955,651.2148,370.0955,663.2148,238.1438,663.2148,226.1438,651.2148,238.1438,639.2148" style="stroke:#181818;stroke-width:0.5;"/><text fill="#000000" font-family="sans-serif" font-size="11" lengthAdjust="spacing" textLength="131.9517" x="238.1438" y="655.3721">Pipeline planning stable?</text><text fill="#000000" font-family="sans-serif" font-size="11" lengthAdjust="spacing" textLength="17.4829" x="208.6609" y="648.8945">yes</text><text fill="#000000" font-family="sans-serif" font-size="11" lengthAdjust="spacing" textLength="13.5835" x="382.0955" y="648.8945">no</text><rect fill="#F1F1F1" height="62.3984" rx="12.5" ry="12.5" style="stroke:#181818;stroke-width:0.5;" width="186.3242" x="71.4878" y="673.2148"/><text fill="#000000" font-family="sans-serif" font-size="12" lengthAdjust="spacing" textLength="44.8945" x="81.4878" y="694.8164">Phase 4</text><text fill="#000000" font-family="sans-serif" font-size="12" lengthAdjust="spacing" textLength="166.3242" x="81.4878" y="708.9492">Implement dataset-compiler</text><text fill="#000000" font-family="sans-serif" font-size="12" lengthAdjust="spacing" textLength="104.4609" x="81.4878" y="723.082">and model-router</text><rect fill="#F1F1F1" height="34.1328" rx="12.5" ry="12.5" style="stroke:#181818;stroke-width:0.5;" width="232.5195" x="48.3901" y="755.6133"/><text fill="#000000" font-family="sans-serif" font-size="12" lengthAdjust="spacing" textLength="212.5195" x="58.3901" y="777.2148">Integrate LMA for source-level plans</text><rect fill="#F1F1F1" height="34.1328" rx="12.5" ry="12.5" style="stroke:#181818;stroke-width:0.5;" width="260.7148" x="34.2925" y="809.7461"/><text fill="#000000" font-family="sans-serif" font-size="12" lengthAdjust="spacing" textLength="240.7148" x="44.2925" y="831.3477">Integrate GMA for assimilated-data plans</text><rect fill="#F1F1F1" height="34.1328" rx="12.5" ry="12.5" style="stroke:#181818;stroke-width:0.5;" width="257.1641" x="315.0073" y="673.2148"/><text fill="#000000" font-family="sans-serif" font-size="12" lengthAdjust="spacing" textLength="237.1641" x="325.0073" y="694.8164">Refine step IR and model capability rules</text><polygon fill="#F1F1F1" points="304.1196,849.8789,316.1196,861.8789,304.1196,873.8789,292.1196,861.8789,304.1196,849.8789" style="stroke:#181818;stroke-width:0.5;"/><polygon fill="#F1F1F1" points="240.6575,893.8789,367.5818,893.8789,379.5818,905.8789,367.5818,917.8789,240.6575,917.8789,228.6575,905.8789,240.6575,893.8789" style="stroke:#181818;stroke-width:0.5;"/><text fill="#000000" font-family="sans-serif" font-size="11" lengthAdjust="spacing" textLength="126.9243" x="240.6575" y="910.0361">Agent planning unified?</text><text fill="#000000" font-family="sans-serif" font-size="11" lengthAdjust="spacing" textLength="17.4829" x="211.1746" y="903.5586">yes</text><text fill="#000000" font-family="sans-serif" font-size="11" lengthAdjust="spacing" textLength="13.5835" x="379.5818" y="903.5586">no</text><rect fill="#F1F1F1" height="76.5313" rx="12.5" ry="12.5" style="stroke:#181818;stroke-width:0.5;" width="191.4922" x="64.3672" y="927.8789"/><text fill="#000000" font-family="sans-serif" font-size="12" lengthAdjust="spacing" textLength="44.8945" x="74.3672" y="949.4805">Phase 5</text><text fill="#000000" font-family="sans-serif" font-size="12" lengthAdjust="spacing" textLength="155.6777" x="74.3672" y="963.6133">Emit Kubernetes manifests</text><text fill="#000000" font-family="sans-serif" font-size="12" lengthAdjust="spacing" textLength="171.4922" x="74.3672" y="977.7461">for model jobs, deployments,</text><text fill="#000000" font-family="sans-serif" font-size="12" lengthAdjust="spacing" textLength="114.7734" x="74.3672" y="991.8789">and cron workloads</text><rect fill="#F1F1F1" height="34.1328" rx="12.5" ry="12.5" style="stroke:#181818;stroke-width:0.5;" width="298.2266" x="11" y="1024.4102"/><text fill="#000000" font-family="sans-serif" font-size="12" lengthAdjust="spacing" textLength="278.2266" x="21" y="1046.0117">Apply through GitOps or platform orchestrators</text><rect fill="#F1F1F1" height="34.1328" rx="12.5" ry="12.5" style="stroke:#181818;stroke-width:0.5;" width="237.7988" x="329.2266" y="927.8789"/><text fill="#000000" font-family="sans-serif" font-size="12" lengthAdjust="spacing" textLength="217.7988" x="339.2266" y="949.4805">Harden routing and dataset contracts</text><polygon fill="#F1F1F1" points="304.1196,1064.543,316.1196,1076.543,304.1196,1088.543,292.1196,1076.543,304.1196,1064.543" style="stroke:#181818;stroke-width:0.5;"/><ellipse cx="304.1196" cy="1119.543" fill="none" rx="11" ry="11" style="stroke:#222222;stroke-width:1;"/><ellipse cx="304.1196" cy="1119.543" fill="#222222" rx="6" ry="6" style="stroke:#222222;stroke-width:1;"/><line style="stroke:#181818;stroke-width:1;" x1="304.1196" x2="304.1196" y1="67.4883" y2="87.4883"/><polygon fill="#181818" points="300.1196,77.4883,304.1196,87.4883,308.1196,77.4883,304.1196,81.4883" style="stroke:#181818;stroke-width:1;"/><line style="stroke:#181818;stroke-width:1;" x1="304.1196" x2="304.1196" y1="149.8867" y2="169.8867"/><polygon fill="#181818" points="300.1196,159.8867,304.1196,169.8867,308.1196,159.8867,304.1196,163.8867" style="stroke:#181818;stroke-width:1;"/><line style="stroke:#181818;stroke-width:1;" x1="217.1162" x2="217.1162" y1="320.418" y2="340.418"/><polygon fill="#181818" points="213.1162,330.418,217.1162,340.418,221.1162,330.418,217.1162,334.418" style="stroke:#181818;stroke-width:1;"/><line style="stroke:#181818;stroke-width:1;" x1="247.0535" x2="217.1162" y1="250.1523" y2="250.1523"/><line style="stroke:#181818;stroke-width:1;" x1="217.1162" x2="217.1162" y1="250.1523" y2="272.1523"/><polygon fill="#181818" points="213.1162,262.1523,217.1162,272.1523,221.1162,262.1523,217.1162,266.1523" style="stroke:#181818;stroke-width:1;"/><line style="stroke:#181818;stroke-width:1;" x1="361.1858" x2="391.123" y1="250.1523" y2="250.1523"/><line style="stroke:#181818;stroke-width:1;" x1="391.123" x2="391.123" y1="250.1523" y2="272.1523"/><polygon fill="#181818" points="387.123,262.1523,391.123,272.1523,395.123,262.1523,391.123,266.1523" style="stroke:#181818;stroke-width:1;"/><line style="stroke:#181818;stroke-width:1;" x1="217.1162" x2="217.1162" y1="388.6836" y2="406.6836"/><line style="stroke:#181818;stroke-width:1;" x1="217.1162" x2="292.1196" y1="406.6836" y2="406.6836"/><polygon fill="#181818" points="282.1196,402.6836,292.1196,406.6836,282.1196,410.6836,286.1196,406.6836" style="stroke:#181818;stroke-width:1;"/><line style="stroke:#181818;stroke-width:1;" x1="391.123" x2="391.123" y1="306.2852" y2="406.6836"/><line style="stroke:#181818;stroke-width:1;" x1="391.123" x2="316.1196" y1="406.6836" y2="406.6836"/><polygon fill="#181818" points="326.1196,402.6836,316.1196,406.6836,326.1196,410.6836,322.1196,406.6836" style="stroke:#181818;stroke-width:1;"/><line style="stroke:#181818;stroke-width:1;" x1="304.1196" x2="304.1196" y1="218.1523" y2="238.1523"/><polygon fill="#181818" points="300.1196,228.1523,304.1196,238.1523,308.1196,228.1523,304.1196,232.1523" style="stroke:#181818;stroke-width:1;"/><line style="stroke:#181818;stroke-width:1;" x1="196.9746" x2="196.9746" y1="520.9492" y2="540.9492"/><polygon fill="#181818" points="192.9746,530.9492,196.9746,540.9492,200.9746,530.9492,196.9746,534.9492" style="stroke:#181818;stroke-width:1;"/><line style="stroke:#181818;stroke-width:1;" x1="216.5269" x2="196.9746" y1="450.6836" y2="450.6836"/><line style="stroke:#181818;stroke-width:1;" x1="196.9746" x2="196.9746" y1="450.6836" y2="472.6836"/><polygon fill="#181818" points="192.9746,462.6836,196.9746,472.6836,200.9746,462.6836,196.9746,466.6836" style="stroke:#181818;stroke-width:1;"/><line style="stroke:#181818;stroke-width:1;" x1="391.7124" x2="411.2646" y1="450.6836" y2="450.6836"/><line style="stroke:#181818;stroke-width:1;" x1="411.2646" x2="411.2646" y1="450.6836" y2="472.6836"/><polygon fill="#181818" points="407.2646,462.6836,411.2646,472.6836,415.2646,462.6836,411.2646,466.6836" style="stroke:#181818;stroke-width:1;"/><line style="stroke:#181818;stroke-width:1;" x1="196.9746" x2="196.9746" y1="589.2148" y2="607.2148"/><line style="stroke:#181818;stroke-width:1;" x1="196.9746" x2="292.1196" y1="607.2148" y2="607.2148"/><polygon fill="#181818" points="282.1196,603.2148,292.1196,607.2148,282.1196,611.2148,286.1196,607.2148" style="stroke:#181818;stroke-width:1;"/><line style="stroke:#181818;stroke-width:1;" x1="411.2646" x2="411.2646" y1="506.8164" y2="607.2148"/><line style="stroke:#181818;stroke-width:1;" x1="411.2646" x2="316.1196" y1="607.2148" y2="607.2148"/><polygon fill="#181818" points="326.1196,603.2148,316.1196,607.2148,326.1196,611.2148,322.1196,607.2148" style="stroke:#181818;stroke-width:1;"/><line style="stroke:#181818;stroke-width:1;" x1="304.1196" x2="304.1196" y1="418.6836" y2="438.6836"/><polygon fill="#181818" points="300.1196,428.6836,304.1196,438.6836,308.1196,428.6836,304.1196,432.6836" style="stroke:#181818;stroke-width:1;"/><line style="stroke:#181818;stroke-width:1;" x1="164.6499" x2="164.6499" y1="735.6133" y2="755.6133"/><polygon fill="#181818" points="160.6499,745.6133,164.6499,755.6133,168.6499,745.6133,164.6499,749.6133" style="stroke:#181818;stroke-width:1;"/><line style="stroke:#181818;stroke-width:1;" x1="164.6499" x2="164.6499" y1="789.7461" y2="809.7461"/><polygon fill="#181818" points="160.6499,799.7461,164.6499,809.7461,168.6499,799.7461,164.6499,803.7461" style="stroke:#181818;stroke-width:1;"/><line style="stroke:#181818;stroke-width:1;" x1="226.1438" x2="164.6499" y1="651.2148" y2="651.2148"/><line style="stroke:#181818;stroke-width:1;" x1="164.6499" x2="164.6499" y1="651.2148" y2="673.2148"/><polygon fill="#181818" points="160.6499,663.2148,164.6499,673.2148,168.6499,663.2148,164.6499,667.2148" style="stroke:#181818;stroke-width:1;"/><line style="stroke:#181818;stroke-width:1;" x1="382.0955" x2="443.5894" y1="651.2148" y2="651.2148"/><line style="stroke:#181818;stroke-width:1;" x1="443.5894" x2="443.5894" y1="651.2148" y2="673.2148"/><polygon fill="#181818" points="439.5894,663.2148,443.5894,673.2148,447.5894,663.2148,443.5894,667.2148" style="stroke:#181818;stroke-width:1;"/><line style="stroke:#181818;stroke-width:1;" x1="164.6499" x2="164.6499" y1="843.8789" y2="861.8789"/><line style="stroke:#181818;stroke-width:1;" x1="164.6499" x2="292.1196" y1="861.8789" y2="861.8789"/><polygon fill="#181818" points="282.1196,857.8789,292.1196,861.8789,282.1196,865.8789,286.1196,861.8789" style="stroke:#181818;stroke-width:1;"/><line style="stroke:#181818;stroke-width:1;" x1="443.5894" x2="443.5894" y1="707.3477" y2="861.8789"/><line style="stroke:#181818;stroke-width:1;" x1="443.5894" x2="316.1196" y1="861.8789" y2="861.8789"/><polygon fill="#181818" points="326.1196,857.8789,316.1196,861.8789,326.1196,865.8789,322.1196,861.8789" style="stroke:#181818;stroke-width:1;"/><line style="stroke:#181818;stroke-width:1;" x1="304.1196" x2="304.1196" y1="619.2148" y2="639.2148"/><polygon fill="#181818" points="300.1196,629.2148,304.1196,639.2148,308.1196,629.2148,304.1196,633.2148" style="stroke:#181818;stroke-width:1;"/><line style="stroke:#181818;stroke-width:1;" x1="160.1133" x2="160.1133" y1="1004.4102" y2="1024.4102"/><polygon fill="#181818" points="156.1133,1014.4102,160.1133,1024.4102,164.1133,1014.4102,160.1133,1018.4102" style="stroke:#181818;stroke-width:1;"/><line style="stroke:#181818;stroke-width:1;" x1="228.6575" x2="160.1133" y1="905.8789" y2="905.8789"/><line style="stroke:#181818;stroke-width:1;" x1="160.1133" x2="160.1133" y1="905.8789" y2="927.8789"/><polygon fill="#181818" points="156.1133,917.8789,160.1133,927.8789,164.1133,917.8789,160.1133,921.8789" style="stroke:#181818;stroke-width:1;"/><line style="stroke:#181818;stroke-width:1;" x1="379.5818" x2="448.126" y1="905.8789" y2="905.8789"/><line style="stroke:#181818;stroke-width:1;" x1="448.126" x2="448.126" y1="905.8789" y2="927.8789"/><polygon fill="#181818" points="444.126,917.8789,448.126,927.8789,452.126,917.8789,448.126,921.8789" style="stroke:#181818;stroke-width:1;"/><line style="stroke:#181818;stroke-width:1;" x1="160.1133" x2="160.1133" y1="1058.543" y2="1076.543"/><line style="stroke:#181818;stroke-width:1;" x1="160.1133" x2="292.1196" y1="1076.543" y2="1076.543"/><polygon fill="#181818" points="282.1196,1072.543,292.1196,1076.543,282.1196,1080.543,286.1196,1076.543" style="stroke:#181818;stroke-width:1;"/><line style="stroke:#181818;stroke-width:1;" x1="448.126" x2="448.126" y1="962.0117" y2="1076.543"/><line style="stroke:#181818;stroke-width:1;" x1="448.126" x2="316.1196" y1="1076.543" y2="1076.543"/><polygon fill="#181818" points="326.1196,1072.543,316.1196,1076.543,326.1196,1080.543,322.1196,1076.543" style="stroke:#181818;stroke-width:1;"/><line style="stroke:#181818;stroke-width:1;" x1="304.1196" x2="304.1196" y1="873.8789" y2="893.8789"/><polygon fill="#181818" points="300.1196,883.8789,304.1196,893.8789,308.1196,883.8789,304.1196,887.8789" style="stroke:#181818;stroke-width:1;"/><line style="stroke:#181818;stroke-width:1;" x1="304.1196" x2="304.1196" y1="1088.543" y2="1108.543"/><polygon fill="#181818" points="300.1196,1098.543,304.1196,1108.543,308.1196,1098.543,304.1196,1102.543" style="stroke:#181818;stroke-width:1;"/><!--SRC=[VL8xRzim4DxrAsvq06leQuc7md63r6YD6CdgXIPF4clgI92dEEwlxr6I3Jk9EqaWZz_psB93-A5g94xmk52jWxdnWQqdA66b6ADLplvL_ScwKGbJKQITfQ2YQc6hzAwElYEpyCv7s3UMyUm-DShulQKQAkKIobDMaOlR7Wa-RMWHKKX6QktRLcYMJnkg1CmebYcUGkiDkYaeCh3tSUUyCf02wZGhRkV6W5DKTsAY9EmugWn4yjKCZ8dJWBO-SEDf2iyXPZrttlC0sNFFYi9MC7bkL4GZ2a24RXr-lm5ka61om7HJ08p2FszesGQ7hUG6hI9R2KyfyeDr66TvS4cCTSpUj8zO9emlLkE6zfQRqnEGu34EuSxNorc14X9CoFTSJrXPmfCPSOjaR3KeNHqXZgoWjCR0QAve_dAkETY0Ji2lQJxTN-eUfmtWA-gkbnqa_FH6-FrhUDVLKEA5XVL8qcDGBkM_eNyzDp3knad_XZ9Zpr7AFl8xHxzNSyXha7mNDPOENz0TnLyCFeo3AYNRMYT7fini7peTAqgC8I_DIGDe5TJMEii7Y9t3o-xcTT_1qNKdJTghlNtRq7rh6NvrMuo4ij6dzHatUs3yuxTf2WQ3yuSSKPeEcUWeBHsh6CpEGt078PEWwWOUB3-6108aYbW0M_dNZU1B7Zw-jVnJHICgSyXPVAOOo_XWKnFxy0y0]--></g></svg>